<svg width="100" height="125" viewBox="0 0 500 500" fill="none" xmlns="http://www.w3.org/2000/svg">
            <style type="text/css">
              .st0 {
                fill: #2450ff;
              }
              .teaser-ramen {
                display: block; /* Make the SVG a block element */
                margin: 0 auto; /* Center the SVG horizontally */
              }
            </style>
            <g>
              <g>
                <path class="st0" d="M50.54,387.08c2.6,3.78,5.31,7.48,8.11,11.1h382.69c2.81-3.62,5.51-7.32,8.11-11.1H50.54z"></path>
              </g>
              <g>
                <path class="st0" d="M30.98,353.08c2.35,4.99,4.87,9.88,7.54,14.68h422.95c2.67-4.79,5.19-9.69,7.54-14.68H30.98z"></path>
              </g>
              <g>
                <path class="st0" d="M17.99,319.07c1.84,6.19,3.93,12.28,6.24,18.26h451.53c2.31-5.97,4.4-12.06,6.24-18.26H17.99z"></path>
              </g>
              <g>
                <path class="st0" d="M78.84,421.09c2.56,2.56,5.19,5.07,7.86,7.52h326.6c2.68-2.45,5.3-4.95,7.86-7.52H78.84z"></path>
              </g>
              <g>
                <path class="st0" d="M372.03,459.03c2.19-1.28,4.35-2.59,6.5-3.94H121.48c2.14,1.35,4.31,2.66,6.5,3.94H372.03z"></path>
              </g>
              <g>
                <path class="st0" d="M212.39,489.1c12.26,1.91,24.82,2.91,37.61,2.91c12.79,0,25.35-1,37.61-2.91H212.39z"></path>
              </g>
              <g>
                <path class="st0" d="M491.97,246.05C489.86,114.22,382.34,7.99,250,7.99S10.14,114.22,8.03,246.05H491.97z"></path>
              </g>
              <g>
                <path class="st0" d="M10.52,285.07c1.07,7.39,2.48,14.68,4.2,21.84h470.55c1.73-7.16,3.13-14.44,4.2-21.84H10.52z"></path>
              </g>
              <g>
                <path class="st0" d="M8,251.06c0.04,8.58,0.52,17.06,1.43,25.41h481.14c0.91-8.35,1.39-16.83,1.43-25.41H8z"></path>
              </g>
            </g>
</svg>
